<?xml version="1.0" encoding="UTF-8" standalone="no"?>
<!-- Created with Inkscape (http://www.inkscape.org/) -->

<svg
   width="70mm"
   height="210mm"
   viewBox="0 0 70 210"
   version="1.1"
   id="svg5"
   xml:space="preserve"
   inkscape:export-filename="ladingPage1.svg"
   inkscape:export-xdpi="96"
   inkscape:export-ydpi="96"
   xmlns:inkscape="http://www.inkscape.org/namespaces/inkscape"
   xmlns:sodipodi="http://sodipodi.sourceforge.net/DTD/sodipodi-0.dtd"
   xmlns="http://www.w3.org/2000/svg"
   xmlns:svg="http://www.w3.org/2000/svg"><sodipodi:namedview
     id="namedview7"
     pagecolor="#ffffff"
     bordercolor="#000000"
     borderopacity="0.25"
     inkscape:showpageshadow="2"
     inkscape:pageopacity="0.0"
     inkscape:pagecheckerboard="0"
     inkscape:deskcolor="#d1d1d1"
     inkscape:document-units="mm"
     showgrid="false"
     inkscape:lockguides="true"
     inkscape:zoom="0.71181884"
     inkscape:cx="3.5121296"
     inkscape:cy="302.04314"
     inkscape:window-width="1366"
     inkscape:window-height="745"
     inkscape:window-x="-8"
     inkscape:window-y="-8"
     inkscape:window-maximized="1"
     inkscape:current-layer="layer1" /><defs
     id="defs2" /><g
     inkscape:label="Camada 1"
     inkscape:groupmode="layer"
     id="layer1"><path
       style="fill:#006085;fill-opacity:1;stroke:none;stroke-width:0.382"
       d="M 1.8100231,-1.8179231 C -2.5101584,16.826557 17.05427,29.721899 39.657811,42.337828 62.26135,54.953756 37.029492,105.41747 25.990554,131.70065 14.951616,157.98385 19.156925,194.78031 88.018872,228.94845 156.88081,263.11659 112.19939,4.4900414 112.19939,4.4900414 L 74.351617,-22.844471 c 0,0 -68.5795542,3.927689 -72.5415939,21.0265479 z"
       id="path28571-1"
       sodipodi:nodetypes="ssssccs" /><path
       style="opacity:1;fill:#48c7f4;fill-opacity:1;stroke:none;stroke-width:0.382"
       d="m 8.4106196,-10.513274 c 0,0 -3.3798141,22.683975 8.2217754,34.87354 4.755553,4.996568 20.951773,11.922315 27.523358,15.590176 C 66.759292,52.56637 52.566372,90.414158 41.527434,116.69734 30.488496,142.98053 25.231858,195.5469 94.093805,229.71504 162.95575,263.88318 118.27433,5.2566372 118.27433,5.2566372 L 48.886727,-13.667256 Z"
       id="path28571"
       sodipodi:nodetypes="cssssccc" /></g></svg>
