<?xml version="1.0" encoding="UTF-8" standalone="no"?>
<!-- Created with Inkscape (http://www.inkscape.org/) -->

<svg
   width="70mm"
   height="210mm"
   viewBox="0 0 70 210"
   version="1.1"
   id="svg5"
   xml:space="preserve"
   inkscape:export-filename="..\..\..\xampp\htdocs\cipa\img\login.svg"
   inkscape:export-xdpi="96"
   inkscape:export-ydpi="96"
   inkscape:version="1.2.2 (732a01da63, 2022-12-09)"
   sodipodi:docname="loginEagradecimento.svg"
   xmlns:inkscape="http://www.inkscape.org/namespaces/inkscape"
   xmlns:sodipodi="http://sodipodi.sourceforge.net/DTD/sodipodi-0.dtd"
   xmlns="http://www.w3.org/2000/svg"
   xmlns:svg="http://www.w3.org/2000/svg"><sodipodi:namedview
     id="namedview7"
     pagecolor="#ffffff"
     bordercolor="#000000"
     borderopacity="0.25"
     inkscape:showpageshadow="2"
     inkscape:pageopacity="0.0"
     inkscape:pagecheckerboard="0"
     inkscape:deskcolor="#d1d1d1"
     inkscape:document-units="mm"
     showgrid="false"
     inkscape:lockguides="true"
     inkscape:zoom="1.0066639"
     inkscape:cx="95.861194"
     inkscape:cy="293.04717"
     inkscape:window-width="1366"
     inkscape:window-height="745"
     inkscape:window-x="-8"
     inkscape:window-y="-8"
     inkscape:window-maximized="1"
     inkscape:current-layer="layer1" /><defs
     id="defs2" /><g
     inkscape:label="Camada 1"
     inkscape:groupmode="layer"
     id="layer1"><path
       style="fill:#006085;fill-opacity:1;stroke-width:0.382"
       d="m 56.710499,213.54185 c 0,0 15.239717,-21.55861 12.637813,-34.19643 -2.601902,-12.63781 -10.77931,-24.16052 -42.00214,-31.96623 -31.2228305,-7.8057 -5.575506,-43.86064 -5.575506,-43.86064 0,0 11.894412,-12.637811 1.115102,-30.85113 C 12.106457,54.454102 55.572169,-3.3685352 77.502489,-1.1383338 99.432816,1.0918683 75.667218,-11.336861 75.667218,-11.336861 L 5.0441499,-11.708561 -4.2483585,233.24198 57.453902,215.02865 Z"
       id="path25017-3"
       sodipodi:nodetypes="csscssccccc" /><path
       style="fill:#48c7f4;fill-opacity:1;stroke-width:0.382"
       d="m 51.294648,213.72771 c 0,0 11.151013,-22.30202 8.549109,-34.93984 -2.601902,-12.63781 -6.690606,-23.41712 -37.913436,-31.22283 -31.2228299,-7.8057 -7.062307,-44.23234 -7.062307,-44.23234 0,0 11.894412,-12.637811 1.115102,-30.85113 C 5.203805,54.268252 52.038051,-2.6019025 73.968371,-0.37170055 95.898694,1.8585017 70.251367,-11.151011 70.251367,-11.151011 L -0.37170037,-11.522711 -9.6642093,233.42783 52.038051,215.21451 Z"
       id="path25017"
       sodipodi:nodetypes="csscssccccc" /></g></svg>
